<svg width="375" height="812" viewBox="0 0 375 812" fill="none" xmlns="http://www.w3.org/2000/svg">
<g clip-path="url(#clip0_1203_36089)">
<rect width="375" height="812" fill="white"/>
<rect x="0.5" width="375" height="256" fill="black"/>
<rect width="375" height="812" fill="black"/>
<g opacity="0.4" filter="url(#filter0_f_1203_36089)">
<path d="M97.6954 805.332L22.33 697.847C8.64255 678.326 7.14709 652.751 18.4661 631.768L348.756 19.4814C366.874 -14.1049 410.454 -23.9992 441.299 -1.52891L624.704 132.083C664.254 160.895 657.293 221.829 612.263 240.979L332.728 359.858C314.065 367.795 300.363 384.231 295.916 404.018L210.745 782.977C198.75 836.351 129.102 850.123 97.6954 805.332Z" fill="#5FD69F"/>
</g>
<g opacity="0.4" filter="url(#filter1_f_1203_36089)">
<path d="M-93.3046 587.332L-168.67 479.847C-182.357 460.326 -183.853 434.751 -172.534 413.768L157.756 -198.519C175.874 -232.105 219.454 -241.999 250.299 -219.529L433.704 -85.9171C473.254 -57.1046 466.293 3.82874 421.263 22.9785L141.728 141.858C123.065 149.795 109.363 166.231 104.916 186.018L19.7453 564.977C7.74963 618.351 -61.8983 632.123 -93.3046 587.332Z" fill="#132D83"/>
</g>
<g clip-path="url(#clip1_1203_36089)">
<rect x="24.2698" y="564.659" width="317.596" height="201.84" rx="18" transform="rotate(-66.425 24.2698 564.659)" fill="black"/>
<rect x="24.5989" y="564.53" width="317.096" height="201.34" rx="17.75" transform="rotate(-66.425 24.5989 564.53)" stroke="#F2F2F2" stroke-opacity="0.1" stroke-width="0.5"/>
<path opacity="0.15" d="M384.183 481.528C357.734 447.887 237.293 314.628 237.661 346.07C238.12 385.372 170.833 274.649 156.493 284.504C142.153 294.36 157.633 335.259 78.747 243.682" stroke="white" stroke-width="1.23" stroke-linecap="round"/>
<path opacity="0.15" d="M402.996 536.974C376.547 503.333 256.106 370.074 256.473 401.515C256.932 440.817 189.646 330.094 175.306 339.95C160.966 349.805 176.445 390.705 97.5595 299.128" stroke="white" stroke-width="1.23" stroke-linecap="round"/>
<path opacity="0.15" d="M375.834 483.602C349.385 449.961 244.01 332.673 244.377 364.114C244.836 403.416 177.549 292.693 163.209 302.549C148.87 312.404 164.349 353.304 85.4632 261.727" stroke="white" stroke-width="1.23" stroke-linecap="round"/>
<path opacity="0.15" d="M394.207 538.754C367.213 504.75 259.789 386.095 260.395 417.696C261.151 457.196 192.29 345.423 177.864 355.22C163.437 365.018 179.393 406.236 98.9466 313.618" stroke="white" stroke-width="1.23" stroke-linecap="round"/>
<path opacity="0.15" d="M435.543 609.605C404.101 572.634 279.975 442.837 282.521 475.732C285.705 516.851 204.004 396.513 188.871 405.839C173.738 415.166 168.899 434.376 75.7192 333.264" stroke="white" stroke-width="1.23" stroke-linecap="round"/>
<path opacity="0.15" d="M401.185 558.203C374.19 524.199 266.767 405.544 267.372 437.144C268.129 476.645 199.268 364.872 184.841 374.669C170.415 384.467 173.114 413.222 92.6667 320.604" stroke="white" stroke-width="1.23" stroke-linecap="round"/>
<path opacity="0.15" d="M444.306 630.243C412.864 593.272 288.738 463.475 291.285 496.371C294.468 537.49 207.653 413.74 192.52 423.066C177.387 432.393 154.26 436.5 61.0797 335.387" stroke="white" stroke-width="1.23" stroke-linecap="round"/>
<path opacity="0.15" d="M435.423 661.58C403.981 624.608 279.855 494.812 282.401 527.707C285.585 568.826 198.769 445.076 183.636 454.403C168.503 463.729 128.679 453.223 35.4988 352.111" stroke="white" stroke-width="1.23" stroke-linecap="round"/>
<path opacity="0.15" d="M432.907 697.564C401.465 660.593 277.338 530.796 279.885 563.692C283.068 604.811 196.253 481.061 181.12 490.387C165.987 499.714 119.369 482.273 26.1888 381.161" stroke="white" stroke-width="1.23" stroke-linecap="round"/>
<path opacity="0.15" d="M417.517 743.305C386.075 706.333 261.949 576.537 264.495 609.432C267.679 650.551 180.863 526.801 165.73 536.128C150.597 545.454 103.98 528.013 10.7994 426.901" stroke="white" stroke-width="1.23" stroke-linecap="round"/>
<path opacity="0.15" d="M408.164 577.65C381.169 543.645 273.746 424.99 274.351 456.591C275.108 496.091 206.247 384.318 191.82 394.116C177.394 403.913 164.35 418.118 83.9032 325.499" stroke="white" stroke-width="1.23" stroke-linecap="round"/>
<path opacity="0.15" d="M453.071 650.882C421.629 613.911 297.503 484.114 300.049 517.009C303.233 558.128 210.914 435.881 195.781 445.207C180.648 454.534 147.848 447.013 54.6673 345.901" stroke="white" stroke-width="1.23" stroke-linecap="round"/>
<path opacity="0.15" d="M444.187 682.22C412.745 645.248 288.619 515.452 291.165 548.347C294.349 589.466 202.03 467.219 186.897 476.545C171.764 485.872 115.917 461.541 22.7372 360.429" stroke="white" stroke-width="1.23" stroke-linecap="round"/>
<path opacity="0.15" d="M428.798 727.96C397.356 690.989 273.229 561.192 275.776 594.087C278.959 635.206 186.64 512.959 171.507 522.285C156.375 531.612 100.528 507.281 7.34781 406.169" stroke="white" stroke-width="1.23" stroke-linecap="round"/>
<path opacity="0.15" d="M434.741 712.55C403.299 675.579 279.173 545.782 281.72 578.678C284.903 619.797 192.584 497.549 177.451 506.876C162.318 516.202 92.7458 484.519 -0.434421 383.406" stroke="white" stroke-width="1.23" stroke-linecap="round"/>
<path opacity="0.15" d="M419.352 758.291C387.91 721.319 263.784 591.522 266.33 624.418C269.513 665.537 177.195 543.29 162.062 552.616C146.929 561.942 77.3564 530.259 -15.8238 429.147" stroke="white" stroke-width="1.23" stroke-linecap="round"/>
<path opacity="0.15" d="M338.147 419.808C311.699 386.167 231.365 299.876 231.729 331.316C232.183 370.615 164.903 259.892 150.561 269.746C136.218 279.599 151.694 320.498 72.8115 228.919" stroke="white" stroke-width="1.23" stroke-linecap="round"/>
<path opacity="0.15" d="M356.54 472.968C330.092 439.326 249.758 353.036 250.122 384.475C250.576 423.775 183.296 313.052 168.953 322.905C154.611 332.759 170.087 373.658 91.2044 282.078" stroke="white" stroke-width="1.23" stroke-linecap="round"/>
</g>
<g opacity="0.2">
<path d="M40.3346 572.014C31.2232 568.038 27.06 557.428 31.036 548.317L42.6689 521.658L227.364 602.254L215.731 628.912C211.755 638.023 201.145 642.186 192.034 638.21L40.3346 572.014Z" fill="white"/>
<path d="M40.4346 571.784C31.4497 567.864 27.3444 557.402 31.2651 548.417L42.798 521.988L227.035 602.383L215.502 628.812C211.581 637.797 201.119 641.902 192.134 637.981L40.4346 571.784Z" stroke="#F2F2F2" stroke-opacity="0.5" stroke-width="0.5"/>
</g>
<circle cx="179.09" cy="605.814" r="10.3373" transform="rotate(21.7152 179.09 605.814)" fill="#EB001B"/>
<circle cx="190.295" cy="610.275" r="10.3373" transform="rotate(21.7152 190.295 610.275)" fill="#F79E1B" fill-opacity="0.8"/>
<path d="M51.0917 550.505C51.4638 549.629 51.9951 548.927 52.6857 548.399C53.38 547.862 54.1503 547.54 54.9968 547.433C55.8519 547.329 56.6961 547.455 57.5295 547.808C58.5088 548.224 59.2634 548.823 59.793 549.606C60.3227 550.388 60.5708 551.285 60.5375 552.295L59.1329 551.698C59.1135 551.051 58.9296 550.481 58.5811 549.989C58.2411 549.5 57.7447 549.117 57.0918 548.839C56.4646 548.573 55.8399 548.48 55.2176 548.561C54.5953 548.641 54.0275 548.892 53.5142 549.313C53.0046 549.725 52.5966 550.292 52.2902 551.014C51.9875 551.727 51.863 552.414 51.9167 553.076C51.9741 553.729 52.1899 554.307 52.5642 554.811C52.9385 555.315 53.4392 555.7 54.0664 555.966C54.7193 556.243 55.3379 556.338 55.9222 556.252C56.5187 556.16 57.0565 555.897 57.5354 555.461L58.94 556.058C58.2403 556.774 57.4249 557.214 56.4941 557.377C55.5669 557.531 54.6136 557.4 53.6342 556.984C52.8008 556.63 52.1226 556.114 51.5994 555.436C51.0885 554.752 50.7831 553.979 50.6834 553.115C50.5836 552.251 50.7197 551.381 51.0917 550.505ZM61.0335 555.836C61.3399 555.114 61.754 554.545 62.2759 554.128C62.8014 553.702 63.3814 553.446 64.016 553.361C64.6591 553.279 65.2942 553.371 65.9214 553.637C66.54 553.9 67.0204 554.261 67.3627 554.721C67.7049 555.18 67.902 555.659 67.954 556.158L68.5011 554.869L69.6867 555.373L66.6886 562.435L65.503 561.931L66.0611 560.617C65.654 560.931 65.1602 561.127 64.5796 561.205C64.0112 561.278 63.422 561.185 62.812 560.926C62.1848 560.659 61.6835 560.264 61.3079 559.74C60.9323 559.215 60.717 558.612 60.662 557.929C60.6069 557.247 60.7308 556.549 61.0335 555.836ZM67.0075 558.387C67.2336 557.855 67.3232 557.345 67.2762 556.859C67.2292 556.373 67.0648 555.948 66.7829 555.585C66.5132 555.217 66.1593 554.94 65.7212 554.754C65.283 554.568 64.8398 554.501 64.3914 554.554C63.943 554.607 63.5276 554.786 63.145 555.09C62.7625 555.394 62.4581 555.812 62.232 556.345C62.0022 556.886 61.909 557.404 61.9524 557.899C61.9994 558.386 62.1577 558.813 62.4273 559.181C62.7006 559.54 63.0564 559.813 63.4945 559.999C63.9327 560.185 64.3759 560.251 64.8243 560.198C65.2849 560.14 65.7065 559.959 66.089 559.655C66.4752 559.343 66.7814 558.92 67.0075 558.387ZM71.5078 564.617C70.9665 564.388 70.5194 564.091 70.1664 563.729C69.8171 563.357 69.5872 562.955 69.4766 562.523C69.3697 562.082 69.3946 561.642 69.5512 561.201L70.7625 561.715C70.6474 562.082 70.6884 562.439 70.8857 562.787C71.0915 563.138 71.435 563.415 71.9161 563.62C72.3629 563.809 72.7571 563.86 73.0987 563.772C73.4403 563.684 73.6749 563.489 73.8026 563.189C73.9339 562.879 73.8931 562.593 73.6802 562.33C73.4709 562.059 73.1095 561.728 72.5959 561.338C72.1302 560.978 71.759 560.658 71.4823 560.378C71.2178 560.094 71.0236 559.763 70.8998 559.386C70.7882 559.004 70.829 558.585 71.0223 558.13C71.1755 557.769 71.4233 557.484 71.7658 557.274C72.1082 557.065 72.5135 556.958 72.9816 556.954C73.4534 556.941 73.9428 557.043 74.4496 557.258C75.2314 557.59 75.779 558.055 76.0923 558.655C76.4057 559.254 76.4336 559.905 76.1762 560.607L75.0035 560.109C75.1346 559.729 75.1101 559.368 74.93 559.028C74.7585 558.692 74.4451 558.427 73.9897 558.234C73.5688 558.055 73.1954 558.003 72.8697 558.078C72.5439 558.152 72.3191 558.336 72.195 558.628C72.0966 558.86 72.0875 559.084 72.1679 559.301C72.2606 559.512 72.3985 559.713 72.5818 559.902C72.7773 560.087 73.0532 560.32 73.4096 560.603C73.8581 560.956 74.2121 561.269 74.4716 561.541C74.7348 561.805 74.9215 562.117 75.0318 562.478C75.1507 562.843 75.1233 563.242 74.9495 563.675C74.7854 564.062 74.5303 564.364 74.1842 564.583C73.8381 564.801 73.4292 564.916 72.9574 564.929C72.4979 564.936 72.0146 564.833 71.5078 564.617ZM82.7344 560.76C83.267 560.986 83.6989 561.306 84.03 561.72C84.3647 562.126 84.5557 562.608 84.603 563.165C84.6588 563.726 84.5481 564.333 84.2709 564.986L82.5038 569.149L81.344 568.656L83.04 564.661C83.3391 563.957 83.3909 563.345 83.1955 562.826C83.0037 562.299 82.6029 561.905 81.9929 561.647C81.3743 561.384 80.7983 561.367 80.2647 561.597C79.7398 561.831 79.3205 562.317 79.0068 563.056L77.3491 566.96L76.1764 566.463L80.2249 556.926L81.3976 557.424L79.9204 560.904C80.3056 560.641 80.742 560.497 81.2297 560.471C81.7259 560.448 82.2275 560.545 82.7344 560.76ZM97.2114 567.058L92.0098 573.184L90.7984 572.67L91.4772 566.342L87.3963 571.226L86.1849 570.711L86.9664 562.709L88.1649 563.217L87.272 569.835L91.5412 564.651L92.7397 565.159L91.9316 571.828L96.0516 566.565L97.2114 567.058ZM99.8545 566.826C99.6311 566.731 99.4749 566.574 99.3859 566.354C99.2969 566.133 99.2999 565.911 99.3947 565.688C99.4895 565.465 99.6471 565.309 99.8674 565.22C100.088 565.131 100.309 565.133 100.533 565.228C100.748 565.319 100.895 565.473 100.976 565.69C101.065 565.91 101.062 566.132 100.967 566.356C100.872 566.579 100.714 566.735 100.494 566.824C100.282 566.917 100.069 566.917 99.8545 566.826ZM99.9346 568.214L96.9365 575.276L95.7638 574.778L98.7619 567.716L99.9346 568.214ZM101.773 577.466C101.231 577.236 100.784 576.94 100.431 576.577C100.082 576.206 99.852 575.804 99.7415 575.372C99.6346 574.931 99.6594 574.49 99.816 574.05L101.027 574.564C100.912 574.931 100.953 575.288 101.151 575.635C101.356 575.986 101.7 576.264 102.181 576.468C102.628 576.658 103.022 576.708 103.364 576.62C103.705 576.532 103.94 576.338 104.067 576.037C104.199 575.728 104.158 575.442 103.945 575.179C103.736 574.908 103.374 574.577 102.861 574.186C102.395 573.826 102.024 573.507 101.747 573.227C101.483 572.942 101.288 572.611 101.165 572.234C101.053 571.852 101.094 571.434 101.287 570.978C101.44 570.617 101.688 570.332 102.031 570.123C102.373 569.913 102.778 569.806 103.246 569.802C103.718 569.79 104.208 569.891 104.714 570.106C105.496 570.438 106.044 570.904 106.357 571.503C106.671 572.103 106.698 572.753 106.441 573.455L105.268 572.957C105.399 572.577 105.375 572.217 105.195 571.877C105.023 571.54 104.71 571.275 104.255 571.082C103.834 570.903 103.46 570.851 103.135 570.926C102.809 571.001 102.584 571.184 102.46 571.476C102.361 571.708 102.352 571.932 102.433 572.149C102.525 572.361 102.663 572.561 102.847 572.751C103.042 572.935 103.318 573.169 103.674 573.452C104.123 573.804 104.477 574.117 104.736 574.389C105 574.653 105.186 574.966 105.297 575.327C105.416 575.692 105.388 576.091 105.214 576.524C105.05 576.911 104.795 577.213 104.449 577.431C104.103 577.649 103.694 577.764 103.222 577.777C102.763 577.785 102.279 577.681 101.773 577.466ZM114.499 578.245C114.404 578.468 114.291 578.699 114.159 578.937L108.515 576.541C108.262 577.255 108.267 577.901 108.529 578.478C108.803 579.051 109.249 579.469 109.867 579.731C110.374 579.946 110.845 580.009 111.278 579.919C111.724 579.825 112.099 579.609 112.405 579.272L113.667 579.808C113.19 580.407 112.577 580.8 111.828 580.989C111.082 581.17 110.288 581.081 109.446 580.724C108.776 580.439 108.239 580.033 107.834 579.507C107.437 578.983 107.205 578.383 107.138 577.706C107.074 577.019 107.198 576.311 107.508 575.581C107.818 574.851 108.235 574.273 108.761 573.847C109.286 573.421 109.873 573.173 110.521 573.104C111.182 573.029 111.855 573.138 112.543 573.43C113.213 573.714 113.744 574.112 114.135 574.623C114.527 575.134 114.75 575.705 114.806 576.337C114.875 576.965 114.772 577.6 114.499 578.245ZM113.391 577.486C113.581 577.039 113.644 576.615 113.582 576.213C113.523 575.803 113.356 575.443 113.082 575.134C112.82 574.82 112.482 574.575 112.07 574.4C111.477 574.148 110.89 574.122 110.309 574.321C109.736 574.524 109.277 574.948 108.932 575.593L113.391 577.486Z" fill="white"/>
<rect x="276.686" y="351" width="32.1472" height="35.7191" rx="5" transform="rotate(23.4001 276.686 351)" fill="white"/>
<path opacity="0.15" d="M447.004 156.495C403.519 125.802 235.022 25.4529 244.423 66.4708C256.175 117.743 131.844 5.07303 116.247 25.2495C100.65 45.4259 52.7117 53.3556 -74.4989 -26.7115" stroke="white" stroke-opacity="0.6" stroke-linecap="round"/>
<path opacity="0.15" d="M456.004 175.495C412.519 144.802 244.022 44.4529 253.423 85.4708C265.175 136.743 140.844 24.073 125.247 44.2495C109.65 64.4259 61.7117 72.3556 -65.4989 -7.71146" stroke="white" stroke-opacity="0.6" stroke-linecap="round"/>
<path opacity="0.15" d="M465.004 194.495C421.519 163.802 253.022 63.4529 262.423 104.471C274.175 155.743 149.844 43.073 134.247 63.2495C118.65 83.4259 70.7117 91.3556 -56.4989 11.2885" stroke="white" stroke-opacity="0.6" stroke-linecap="round"/>
<path opacity="0.15" d="M474.004 213.495C430.519 182.802 262.022 82.4529 271.423 123.471C283.175 174.743 158.844 62.073 143.247 82.2495C127.65 102.426 79.7117 110.356 -47.4989 30.2885" stroke="white" stroke-opacity="0.6" stroke-linecap="round"/>
<path opacity="0.15" d="M483.004 232.495C439.519 201.802 271.022 101.453 280.423 142.471C292.175 193.743 167.844 81.073 152.247 101.249C136.65 121.426 88.7117 129.356 -38.4989 49.2885" stroke="white" stroke-opacity="0.6" stroke-linecap="round"/>
<path opacity="0.15" d="M492.004 251.495C448.519 220.802 280.022 120.453 289.423 161.471C301.175 212.743 176.844 100.073 161.247 120.249C145.65 140.426 97.7117 148.356 -29.4989 68.2885" stroke="white" stroke-opacity="0.6" stroke-linecap="round"/>
<path opacity="0.15" d="M501.004 270.495C457.519 239.802 289.022 139.453 298.423 180.471C310.175 231.743 185.844 119.073 170.247 139.249C154.65 159.426 106.712 167.356 -20.4989 87.2885" stroke="white" stroke-opacity="0.6" stroke-linecap="round"/>
<path opacity="0.15" d="M510.004 289.495C466.519 258.802 298.022 158.453 307.423 199.471C319.175 250.743 194.844 138.073 179.247 158.249C163.65 178.426 115.712 186.356 -11.4989 106.289" stroke="white" stroke-opacity="0.6" stroke-linecap="round"/>
<path opacity="0.15" d="M519.004 308.495C475.519 277.802 307.022 177.453 316.423 218.471C328.175 269.743 203.844 157.073 188.247 177.249C172.65 197.426 124.712 205.356 -2.49895 125.289" stroke="white" stroke-opacity="0.6" stroke-linecap="round"/>
<path opacity="0.15" d="M528.004 327.496C484.518 296.802 316.022 196.453 325.423 237.471C337.174 288.743 212.844 176.073 197.247 196.25C181.649 216.426 118.71 217.068 -8.50058 137.001" stroke="white" stroke-opacity="0.6" stroke-linecap="round"/>
<path opacity="0.15" d="M537.004 346.496C493.519 315.802 325.022 215.453 334.423 256.471C346.175 307.743 221.844 195.073 206.247 215.25C190.65 235.426 119.211 232.568 -7.99955 152.501" stroke="white" stroke-opacity="0.6" stroke-linecap="round"/>
<path d="M347.665 440.519C348.535 468.803 331.439 495.028 302.95 514.551C274.466 534.071 234.649 546.843 190.25 548.208C145.852 549.574 105.325 539.273 75.6954 521.541C46.0601 503.806 27.3851 478.68 26.5152 450.397C25.6453 422.113 42.7409 395.888 71.2303 376.365C99.7143 356.845 139.531 344.073 183.93 342.708C228.328 341.342 268.855 351.643 298.485 369.375C328.12 387.111 346.795 412.236 347.665 440.519Z" stroke="white" stroke-opacity="0.1"/>
<path d="M316.999 572.637C298.382 592.293 268.165 597.55 234.245 590.014C200.336 582.48 162.821 562.175 129.761 530.863C96.7015 499.551 74.3914 463.192 65.0294 429.742C55.6643 396.281 59.2738 365.823 77.8905 346.167C96.5072 326.512 126.724 321.255 160.644 328.791C194.553 336.325 232.068 356.629 265.128 387.942C298.188 419.254 320.498 455.612 329.86 489.062C339.225 522.524 335.616 552.982 316.999 572.637Z" stroke="#17C373" stroke-opacity="0.1"/>
<circle cx="57.5" cy="388" r="16" fill="black"/>
<circle cx="58.2842" cy="387.784" r="9.78422" fill="white"/>
<path opacity="0.4" d="M63.0754 387.17V390.414C63.0754 391.909 61.8621 393.123 60.3671 393.123H55.6329C54.1379 393.123 52.9246 391.909 52.9246 390.414V387.208C53.3362 387.652 53.9212 387.906 54.555 387.906C55.2375 387.906 55.8929 387.565 56.3046 387.018C56.6729 387.565 57.3012 387.906 58 387.906C58.6933 387.906 59.3108 387.581 59.6846 387.04C60.1016 387.576 60.7462 387.906 61.4179 387.906C62.0733 387.906 62.6691 387.641 63.0754 387.17Z" fill="black"/>
<path d="M59.6195 381.677H56.3695L55.9686 385.664C55.9361 386.032 55.9903 386.379 56.1257 386.693C56.4399 387.43 57.1766 387.906 57.9999 387.906C58.8341 387.906 59.5545 387.441 59.8795 386.698C59.977 386.466 60.0366 386.195 60.042 385.918V385.816L59.6195 381.677Z" fill="black"/>
<path opacity="0.6" d="M63.6116 385.48L63.4545 383.979C63.227 382.343 62.485 381.677 60.8979 381.677H58.8179L59.2187 385.74C59.2241 385.794 59.2295 385.853 59.2295 385.956C59.262 386.238 59.3487 386.498 59.4787 386.731C59.8687 387.446 60.627 387.906 61.4179 387.906C62.1383 387.906 62.7883 387.587 63.1945 387.023C63.5195 386.59 63.6658 386.043 63.6116 385.48Z" fill="black"/>
<path opacity="0.6" d="M55.0696 381.677C53.4771 381.677 52.7405 382.343 52.5076 383.996L52.3613 385.485C52.3071 386.065 52.4642 386.628 52.8055 387.067C53.2171 387.603 53.8509 387.906 54.5551 387.906C55.3459 387.906 56.1042 387.446 56.4888 386.742C56.6296 386.498 56.7217 386.216 56.7488 385.924L57.1713 381.683H55.0696V381.677Z" fill="black"/>
<path d="M57.6479 390.024C56.9599 390.094 56.4399 390.679 56.4399 391.373V393.122H59.5545V391.562C59.5599 390.43 58.8937 389.894 57.6479 390.024Z" fill="black"/>
<circle cx="275.5" cy="596" r="16" fill="#17C373"/>
<circle cx="275.918" cy="595.755" r="9.78422" fill="white"/>
<path d="M281.354 595.196V596.315C281.354 596.614 281.115 596.859 280.81 596.87H279.745C279.158 596.87 278.62 596.44 278.571 595.853C278.538 595.511 278.668 595.19 278.897 594.967C279.098 594.761 279.375 594.641 279.679 594.641H280.81C281.115 594.652 281.354 594.897 281.354 595.196Z" fill="#17C373"/>
<path opacity="0.4" d="M278.897 594.967C278.669 595.19 278.538 595.51 278.571 595.853C278.62 596.44 279.158 596.869 279.745 596.869H280.81V597.658C280.81 599.288 279.723 600.375 278.092 600.375H273.2C271.57 600.375 270.482 599.288 270.482 597.658V593.853C270.482 592.374 271.374 591.341 272.76 591.167C272.901 591.146 273.048 591.135 273.2 591.135H278.092C278.234 591.135 278.37 591.14 278.5 591.162C279.902 591.325 280.81 592.363 280.81 593.853V594.641H279.68C279.375 594.641 279.098 594.76 278.897 594.967Z" fill="#17C373"/>
<path d="M276.462 594.532H273.2C272.977 594.532 272.792 594.347 272.792 594.124C272.792 593.902 272.977 593.717 273.2 593.717H276.462C276.684 593.717 276.869 593.902 276.869 594.124C276.869 594.347 276.684 594.532 276.462 594.532Z" fill="#17C373"/>
<circle cx="333.5" cy="473" r="16" fill="#073D9F"/>
<circle cx="333.918" cy="472.754" r="9.78422" fill="white"/>
<path d="M339.5 470V471.21C339.5 472 339 472.5 338.21 472.5H336.5V469.005C336.5 468.45 336.955 468 337.51 468C338.055 468.005 338.555 468.225 338.915 468.585C339.275 468.95 339.5 469.45 339.5 470Z" fill="#073D9F"/>
<path opacity="0.4" d="M329.5 470.5V477.5C329.5 477.915 329.97 478.15 330.3 477.9L331.155 477.26C331.355 477.11 331.635 477.13 331.815 477.31L332.645 478.145C332.84 478.34 333.16 478.34 333.355 478.145L334.195 477.305C334.37 477.13 334.65 477.11 334.845 477.26L335.7 477.9C336.03 478.145 336.5 477.91 336.5 477.5V469C336.5 468.45 336.95 468 337.5 468H332H331.5C330 468 329.5 468.895 329.5 470V470.5Z" fill="#073D9F"/>
<path d="M334.5 471.875H331.5C331.295 471.875 331.125 471.705 331.125 471.5C331.125 471.295 331.295 471.125 331.5 471.125H334.5C334.705 471.125 334.875 471.295 334.875 471.5C334.875 471.705 334.705 471.875 334.5 471.875Z" fill="#073D9F"/>
<path d="M334.125 473.875H331.875C331.67 473.875 331.5 473.705 331.5 473.5C331.5 473.295 331.67 473.125 331.875 473.125H334.125C334.33 473.125 334.5 473.295 334.5 473.5C334.5 473.705 334.33 473.875 334.125 473.875Z" fill="#073D9F"/>
</g>
<defs>
<filter id="filter0_f_1203_36089" x="-179.087" y="-203.62" width="1019.7" height="1225.82" filterUnits="userSpaceOnUse" color-interpolation-filters="sRGB">
<feFlood flood-opacity="0" result="BackgroundImageFix"/>
<feBlend mode="normal" in="SourceGraphic" in2="BackgroundImageFix" result="shape"/>
<feGaussianBlur stdDeviation="95" result="effect1_foregroundBlur_1203_36089"/>
</filter>
<filter id="filter1_f_1203_36089" x="-370.087" y="-421.62" width="1019.7" height="1225.82" filterUnits="userSpaceOnUse" color-interpolation-filters="sRGB">
<feFlood flood-opacity="0" result="BackgroundImageFix"/>
<feBlend mode="normal" in="SourceGraphic" in2="BackgroundImageFix" result="shape"/>
<feGaussianBlur stdDeviation="95" result="effect1_foregroundBlur_1203_36089"/>
</filter>
<clipPath id="clip0_1203_36089">
<rect width="375" height="812" fill="white"/>
</clipPath>
<clipPath id="clip1_1203_36089">
<rect width="201.84" height="317.596" fill="white" transform="translate(151.292 273.57) rotate(23.575)"/>
</clipPath>
</defs>
</svg>
